:FULLY-SPECIFIED
:FORCE-ALL-JOINTS-BE-3DOF
:DEGREES
815
root 1.79629 16.6513 22.2248 7.30211 0.299814 354.616
lfemur -37.9089 -2.56711 3.10938
ltibia 22.8092 0 0
lfoot -10.695 11.83 0
ltoes 19.3391 0 0
rfemur 3.76038 6.30496 23.9895
rtibia 15.8324 0 0
rfoot -28.2738 -15.6924 0
rtoes -24.6406 0 0
lowerback 0.555603 6.51677 6.0961
upperback -0.202762 8.71107 -0.454362
thorax 0.439766 4.35961 -3.75717
lowerneck -5.55093 -1.60643 2.89975
upperneck -1.25276 -2.31514 1.56421
head 0.488156 -1.14829 -0.0370836
lclavicle -3.47475e-14 2.43324e-15 0
lhumerus -53.5142 -6.79941 91.5529
lradius 54.9416 0 0
lwrist 20.7206 0 0
lhand -8.50758 5.62397 0
lfingers 7.12502 0 0
lthumb 17.4204 34.8649 0
rclavicle -3.47475e-14 2.43324e-15 0
rhumerus -30.5605 47.842 -114.625
rradius 69.6262 0 0
rwrist -2.403 0 0
rhand -7.22821 -24.0034 0
rfingers 7.12502 0 0
rthumb 18.6535 -773.206 0
816
root 1.84595 16.6386 22.3923 6.68574 -0.40044 353.916
lfemur -37.5818 -2.1245 3.40569
ltibia 21.3624 0 0
lfoot -10.1735 12.9158 0
ltoes 19.6306 0 0
rfemur 4.36454 6.42464 23.8946
rtibia 15.7411 0 0
rfoot -27.5288 -15.5154 0
rtoes -24.9579 0 0
lowerback 0.463626 6.60452 6.11449
upperback -0.2235 8.82519 -0.388483
thorax 0.474332 4.41778 -3.68944
lowerneck -5.52735 -1.56293 2.97814
upperneck -1.08451 -2.26508 1.53692
head 0.539771 -1.12092 -0.0587775
lclavicle -2.74282e-14 2.02747e-15 0
lhumerus -53.4612 -6.71632 91.4209
lradius 54.3682 0 0
lwrist 20.2165 0 0
lhand -8.30883 5.56196 0
lfingers 7.12502 0 0
lthumb 17.6116 34.7836 0
rclavicle -2.74282e-14 2.02747e-15 0
rhumerus -30.2665 47.6149 -113.803
rradius 69.3018 0 0
rwrist -2.53614 0 0
rhand -6.87178 -23.6457 0
rfingers 7.12502 0 0
rthumb 18.9969 -772.821 0
817
root 1.90473 16.6246 22.5887 6.08862 -1.18478 353.318
lfemur -37.2123 -1.71616 3.62403
ltibia 20.0308 0 0
lfoot -9.61657 13.8034 0
ltoes 19.7666 0 0
rfemur 4.88154 6.4978 23.682
rtibia 15.9772 0 0
rfoot -26.4941 -15.1187 0
rtoes -25.2522 0 0
lowerback 0.364654 6.68331 6.1103
upperback -0.245321 8.92735 -0.311933
thorax 0.506247 4.46985 -3.59858
lowerneck -5.5099 -1.52612 3.05887
upperneck -0.858068 -2.22578 1.50266
head 0.611126 -1.09799 -0.0842971
lclavicle -2.0232e-14 1.581e-15 0
lhumerus -53.4209 -6.61368 91.2539
lradius 53.7947 0 0
lwrist 19.7301 0 0
lhand -8.08109 5.51243 0
lfingers 7.12502 0 0
lthumb 17.8306 34.7126 0
rclavicle -2.0232e-14 1.581e-15 0
rhumerus -30.0139 47.2489 -112.793
rradius 68.8887 0 0
rwrist -2.61438 0 0
rhand -6.67274 -23.322 0
rfingers 7.12502 0 0
rthumb 19.1885 -772.474 0
818
root 1.97347 16.6092 22.8177 5.53075 -2.08677 352.851
lfemur -36.7968 -1.35538 3.76023
ltibia 18.8261 0 0
lfoot -9.01877 14.4604 0
ltoes 19.7267 0 0
rfemur 5.30431 6.52883 23.3388
rtibia 16.5673 0 0
rfoot -25.1422 -14.4707 0
rtoes -25.5198 0 0
lowerback 0.25817 6.75221 6.08323
upperback -0.26795 9.01635 -0.222626
thorax 0.535631 4.51521 -3.48228
lowerneck -5.49953 -1.49524 3.14309
upperneck -0.566921 -2.19653 1.45941
head 0.704337 -1.07907 -0.11456
lclavicle -1.32455e-14 1.0941e-15 0
lhumerus -53.3942 -6.48803 91.0474
lradius 53.2188 0 0
lwrist 19.2691 0 0
lhand -7.81812 5.48099 0
lfingers 7.12502 0 0
lthumb 18.0836 34.6573 0
rclavicle -1.32455e-14 1.0941e-15 0
rhumerus -29.8095 46.7285 -111.579
rradius 68.3745 0 0
rwrist -2.63348 0 0
rhand -6.64631 -23.0395 0
rfingers 7.12502 0 0
rthumb 19.2135 -772.175 0
819
root 2.053 16.5926 23.0832 5.0321 -3.13995 352.544
lfemur -36.3315 -1.05546 3.8101
ltibia 17.7598 0 0
lfoot -8.37449 14.8542 0
ltoes 19.4906 0 0
rfemur 5.62578 6.52212 22.8523
rtibia 17.5383 0 0
rfoot -23.4461 -13.54 0
rtoes -25.7567 0 0
lowerback 0.143653 6.8103 6.03297
upperback -0.291114 9.091 -0.118474
thorax 0.562605 4.55322 -3.33826
lowerneck -5.49718 -1.46954 3.23194
upperneck -0.204566 -2.17661 1.40515
head 0.821516 -1.06372 -0.150484
lclavicle -6.55548e-15 5.67011e-16 0
lhumerus -53.3823 -6.33587 90.7969
lradius 52.6384 0 0
lwrist 18.8412 0 0
lhand -7.51371 5.47329 0
lfingers 7.12502 0 0
lthumb 18.3766 34.6229 0
rclavicle -6.55548e-15 5.67011e-16 0
rhumerus -29.6601 46.0384 -110.144
rradius 67.7471 0 0
rwrist -2.58918 0 0
rhand -6.80773 -22.8054 0
rfingers 7.12502 0 0
rthumb 19.0573 -771.93 0
820
root 2.14416 16.5748 23.3889 4.61266 -4.37788 352.424
lfemur -35.8129 -0.829675 3.76948
ltibia 16.8436 0 0
lfoot -7.6782 14.9523 0
ltoes 19.0378 0 0
rfemur 5.83887 6.48206 22.2095
rtibia 18.917 0 0
rfoot -21.3786 -12.2951 0
rtoes -25.9589 0 0
lowerback 0.0205861 6.85666 5.95921
upperback -0.314538 9.1501 0.00260752
thorax 0.58729 4.58326 -3.16423
lowerneck -5.50381 -1.44827 3.32656
upperneck 0.235501 -2.16531 1.33786
head 0.964776 -1.05151 -0.192986
lclavicle -2.48481e-16 0 0
lhumerus -53.3862 -6.15374 90.498
lradius 52.0513 0 0
lwrist 18.4542 0 0
lhand -7.16163 5.49493 0
lfingers 7.12502 0 0
lthumb 18.7154 34.6146 0
rclavicle -2.48481e-16 0 0
rhumerus -29.5725 45.1631 -108.471
rradius 66.9941 0 0
rwrist -2.47723 0 0
rhand -7.17223 -22.6272 0
rfingers 7.12502 0 0
rthumb 18.7052 -771.748 0
821
root 2.23797 16.556 23.6984 4.25766 -5.61876 352.421
lfemur -35.3215 -0.669012 3.64509
ltibia 16.1633 0 0
lfoot -7.0008 14.8412 0
ltoes 18.3762 0 0
rfemur 6.02553 6.36114 21.4742
rtibia 20.6294 0 0
rfoot -19.0888 -10.8576 0
rtoes -26.16 0 0
lowerback -0.13075 6.90194 5.87243
upperback -0.348327 9.20911 0.129405
thorax 0.611335 4.61305 -2.97903
lowerneck -5.51701 -1.43962 3.41582
upperneck 0.710985 -2.1713 1.26508
head 1.12049 -1.04743 -0.237547
lclavicle 5.42637e-15 -5.51342e-16 0
lhumerus -53.4473 -5.92763 90.1932
lradius 51.5173 0 0
lwrist 18.1066 0 0
lhand -6.83459 5.52566 0
lfingers 7.12502 0 0
lthumb 19.0303 34.6195 0
rclavicle 5.42637e-15 -5.51342e-16 0
rhumerus -29.51 44.2425 -106.76
rradius 66.2074 0 0
rwrist -2.29012 0 0
rhand -7.74852 -22.4954 0
rfingers 7.12502 0 0
rthumb 18.1488 -771.62 0
822
root 2.3253 16.5365 23.975 3.93489 -6.66413 352.444
lfemur -34.9312 -0.552053 3.44817
ltibia 15.7818 0 0
lfoot -6.41257 14.6297 0
ltoes 17.542 0 0
rfemur 6.2583 6.11659 20.7197
rtibia 22.569 0 0
rfoot -16.7503 -9.37606 0
rtoes -26.3897 0 0
lowerback -0.324293 6.95539 5.78218
upperback -0.40067 9.28137 0.249201
thorax 0.635691 4.64925 -2.80229
lowerneck -5.53362 -1.45122 3.48851
upperneck 1.17566 -2.20244 1.19599
head 1.27373 -1.05611 -0.279009
lclavicle 1.03158e-14 -1.03726e-15 0
lhumerus -53.5974 -5.6524 89.9251
lradius 51.0926 0 0
lwrist 17.7913 0 0
lhand -6.60183 5.54216 0
lfingers 7.12502 0 0
lthumb 19.2547 34.6206 0
rclavicle 1.03158e-14 -1.03726e-15 0
rhumerus -29.4355 43.4161 -105.207
rradius 65.483 0 0
rwrist -2.02834 0 0
rhand -8.52082 -22.3953 0
rfingers 7.12502 0 0
rthumb 17.4033 -771.532 0
